<svg width="115" height="115" viewBox="0 0 115 115" fill="none" xmlns="http://www.w3.org/2000/svg">
<path d="M19.167 23.957H28.7503" stroke="#66E979" stroke-width="3" stroke-linecap="round" stroke-linejoin="round"/>
<path d="M23.958 19.168V28.7513" stroke="#66E979" stroke-width="3" stroke-linecap="round" stroke-linejoin="round"/>
<path d="M55.1038 19.168L52.708 28.7513" stroke="#66E979" stroke-width="3" stroke-linecap="round" stroke-linejoin="round"/>
<path d="M86.25 23.957H95.8333" stroke="#66E979" stroke-width="3" stroke-linecap="round" stroke-linejoin="round"/>
<path d="M91.042 19.168V28.7513" stroke="#66E979" stroke-width="3" stroke-linecap="round" stroke-linejoin="round"/>
<path d="M71.8747 43.125L67.083 47.9167" stroke="#66E979" stroke-width="3" stroke-linecap="round" stroke-linejoin="round"/>
<path d="M86.25 62.2904L95.8333 59.8945" stroke="#66E979" stroke-width="3" stroke-linecap="round" stroke-linejoin="round"/>
<path d="M86.25 91.043H95.8333" stroke="#66E979" stroke-width="3" stroke-linecap="round" stroke-linejoin="round"/>
<path d="M91.042 86.25V95.8333" stroke="#66E979" stroke-width="3" stroke-linecap="round" stroke-linejoin="round"/>
<path d="M67.083 79.1501L35.8509 47.918L14.8155 93.8221C14.3997 94.7134 14.2682 95.711 14.4389 96.6796C14.6097 97.6481 15.0742 98.5407 15.7697 99.2361C16.4651 99.9315 17.3576 100.396 18.3262 100.567C19.2947 100.737 20.2923 100.606 21.1836 100.19L67.083 79.1501Z" stroke="#66E979" stroke-width="3" stroke-linecap="round" stroke-linejoin="round"/>
</svg>
