<svg width="484" height="66" viewBox="0 0 484 66" fill="none" xmlns="http://www.w3.org/2000/svg">
<g clip-path="url(#clip0_2203_11299)">
<path d="M97.1156 55.6374L92.5356 48.5074H94.6556L98.0456 53.9074L101.466 48.5074H103.586L98.9756 55.6374V60.3774H97.1156V55.6374Z" fill="white"/>
<path d="M102.976 56.0474C102.976 53.6874 104.886 51.7674 107.256 51.7674C109.626 51.7674 111.536 53.6774 111.536 56.0474C111.536 58.4174 109.626 60.3374 107.256 60.3374C104.886 60.3374 102.976 58.4274 102.976 56.0574V56.0474ZM109.796 56.0474C109.796 54.1474 108.796 52.9274 107.246 52.9274C105.696 52.9274 104.706 54.1474 104.706 56.0474C104.706 57.9474 105.706 59.1574 107.246 59.1574C108.786 59.1574 109.806 57.9374 109.806 56.0474H109.796Z" fill="white"/>
<path d="M113.756 51.7574H115.466V56.8974C115.466 58.2874 115.886 59.0174 117.056 59.0174C118.226 59.0474 119.196 58.1274 119.236 56.9574C119.236 56.8474 119.236 56.7474 119.216 56.6374V51.7374H120.976V60.3074H119.266V58.9474C118.746 59.9474 117.696 60.5474 116.576 60.4874C114.576 60.4874 113.836 59.3474 113.836 57.3674L113.756 51.7574Z" fill="white"/>
<path d="M123.676 51.7574H125.386V53.0874C125.846 52.1774 126.786 51.6174 127.806 51.6374C127.966 51.6274 128.136 51.6274 128.296 51.6374V53.4174C128.056 53.3374 127.816 53.3074 127.566 53.3074C126.416 53.2474 125.436 54.1374 125.376 55.2874C125.376 55.4074 125.376 55.5174 125.386 55.6374V60.3274H123.676V51.7574Z" fill="white"/>
<path d="M133.736 51.7574H135.536L137.336 58.1774L139.336 51.7574H140.976L142.976 58.1774L144.816 51.7574H146.596L143.926 60.3274H142.236L140.236 54.0974L138.166 60.3274H136.506L133.736 51.7574Z" fill="white"/>
<path d="M147.436 56.0474C147.436 53.6874 149.346 51.7674 151.716 51.7674C154.086 51.7674 155.996 53.6774 155.996 56.0474C155.996 58.4174 154.086 60.3374 151.716 60.3374C149.346 60.3374 147.436 58.4274 147.436 56.0574V56.0474ZM154.256 56.0474C154.256 54.1474 153.256 52.9274 151.706 52.9274C150.156 52.9274 149.166 54.1474 149.166 56.0474C149.166 57.9474 150.166 59.1574 151.706 59.1574C153.246 59.1574 154.256 57.9374 154.256 56.0474Z" fill="white"/>
<path d="M158.156 51.7574H159.866V53.0874C160.326 52.1774 161.266 51.6174 162.286 51.6374C162.446 51.6274 162.616 51.6274 162.776 51.6374V53.4174C162.536 53.3374 162.296 53.3074 162.046 53.3074C160.896 53.2474 159.916 54.1374 159.856 55.2874C159.856 55.4074 159.856 55.5174 159.866 55.6374V60.3274H158.156V51.7574Z" fill="white"/>
<path d="M164.256 48.4774H165.976V55.6374L169.516 51.7574H171.736L167.976 55.6374L172.136 60.3174H169.906L165.976 55.6374V60.2974H164.266V48.4774H164.256Z" fill="white"/>
<path d="M173.656 51.7574H175.376V53.0874C175.956 52.1174 177.026 51.5574 178.156 51.6374C180.576 51.6374 181.806 53.5174 181.806 56.0774C181.806 58.6374 180.476 60.5274 178.136 60.5274C177.006 60.5874 175.946 59.9874 175.406 58.9874V63.4874H173.686L173.656 51.7574ZM180.066 56.0374C180.066 54.0874 179.196 52.9174 177.656 52.9174C176.116 52.9174 175.356 54.0974 175.356 56.0674C175.356 58.0374 176.076 59.1774 177.676 59.1774C179.276 59.1774 180.066 58.0474 180.066 56.0374Z" fill="white"/>
<path d="M183.976 48.4774H185.696V60.3274H183.976V48.4774Z" fill="white"/>
<path d="M193.456 59.1274C192.746 60.0574 191.626 60.5674 190.456 60.4874C188.626 60.4874 187.746 59.4874 187.746 58.2074C187.746 55.7474 190.246 55.6974 192.006 55.3974C193.286 55.1874 193.466 55.0874 193.466 54.4874C193.466 53.5874 192.866 52.9574 191.706 52.9574C190.806 52.8174 189.976 53.4374 189.836 54.3274C189.826 54.4074 189.816 54.4874 189.816 54.5674H188.166C188.356 52.7074 189.346 51.5674 191.716 51.5674C194.086 51.5674 195.176 52.7074 195.176 54.9974V60.2974H193.466V59.1274H193.456ZM193.456 56.1274C191.696 56.5874 189.456 56.4474 189.456 57.9174C189.456 58.6674 190.096 59.1574 190.986 59.1574C192.236 59.2774 193.346 58.3674 193.466 57.1174C193.466 57.0374 193.476 56.9574 193.476 56.8774L193.456 56.1274Z" fill="white"/>
<path d="M204.896 57.1674C204.776 59.3174 203.416 60.4874 201.176 60.4874C198.446 60.4874 197.176 58.6774 197.176 56.0474C197.176 53.4174 198.586 51.5974 201.176 51.5974C203.416 51.5974 204.786 52.7974 204.906 54.9474H203.206C203.206 53.8774 202.336 53.0074 201.266 53.0074C201.226 53.0074 201.186 53.0074 201.156 53.0074C199.686 53.0074 198.866 54.0074 198.866 56.0074C198.866 58.0074 199.686 59.0074 201.156 59.0074C202.186 59.1074 203.096 58.3574 203.196 57.3274C203.196 57.2474 203.206 57.1774 203.196 57.0974L204.886 57.1674H204.896Z" fill="white"/>
<path d="M214.396 57.3974C214.256 59.1874 212.926 60.4874 210.666 60.4874C207.866 60.4874 206.666 58.7074 206.666 56.0474C206.666 53.3874 207.976 51.6374 210.646 51.6374C213.316 51.6374 214.416 53.3374 214.416 56.0774V56.3474H208.416C208.416 58.2074 209.286 59.1474 210.626 59.1474C211.666 59.2774 212.606 58.5374 212.726 57.4974C212.726 57.4774 212.726 57.4574 212.726 57.4374L214.386 57.3974H214.396ZM212.716 55.1874C212.846 54.0874 212.066 53.0974 210.976 52.9574C210.866 52.9474 210.756 52.9374 210.646 52.9474C209.366 52.9474 208.586 53.6774 208.406 55.1874H212.716Z" fill="white"/>
<path d="M217.496 58.1274C218.096 58.0974 218.606 58.5674 218.636 59.1674C218.636 59.1974 218.636 59.2374 218.636 59.2674C218.656 59.8774 218.186 60.3874 217.576 60.4074C217.546 60.4074 217.526 60.4074 217.496 60.4074C216.866 60.4074 216.356 59.8974 216.356 59.2674C216.356 58.6374 216.866 58.1274 217.496 58.1274Z" fill="white"/>
<path d="M225.646 48.4774H230.646C232.806 48.4774 234.026 49.6974 234.026 51.4074C234.046 52.4274 233.506 53.3774 232.616 53.8774C233.916 54.2974 234.806 55.5074 234.816 56.8774C234.816 58.9674 233.366 60.2774 231.066 60.2774H225.676L225.646 48.4774ZM230.236 53.4774C231.156 53.5874 231.986 52.9174 232.096 51.9974C232.096 51.9074 232.106 51.8274 232.096 51.7374C232.146 50.8574 231.466 50.0974 230.586 50.0474C230.496 50.0474 230.416 50.0474 230.326 50.0474H227.486V53.4274L230.226 53.4674L230.236 53.4774ZM230.926 58.8274C231.906 58.9474 232.796 58.2374 232.916 57.2574C232.916 57.1774 232.926 57.0874 232.926 57.0074C232.986 55.9574 232.176 55.0674 231.136 55.0074C231.066 55.0074 230.996 55.0074 230.926 55.0074H227.576V58.8174H230.926V58.8274Z" fill="white"/>
<path d="M244.186 57.3974C244.046 59.1874 242.716 60.4874 240.456 60.4874C237.656 60.4874 236.456 58.7074 236.456 56.0474C236.456 53.3874 237.776 51.5974 240.456 51.5974C243.136 51.5974 244.216 53.2974 244.216 56.0374V56.3074H238.216C238.266 58.1674 239.086 59.1074 240.426 59.1074C241.476 59.2274 242.426 58.4774 242.546 57.4274C242.546 57.4174 242.546 57.4074 242.546 57.3974H244.186ZM242.506 55.1874C242.636 54.0874 241.856 53.0974 240.766 52.9574C240.666 52.9474 240.556 52.9374 240.446 52.9474C239.166 52.9474 238.376 53.6774 238.206 55.1874H242.506Z" fill="white"/>
<path d="M246.666 53.1674H245.466V51.7574H246.666V49.5574H248.376V51.7574H250.376V53.1674H248.376V57.6374C248.286 58.2274 248.686 58.7874 249.286 58.8874C249.386 58.9074 249.496 58.9074 249.596 58.8874C249.876 58.8874 250.156 58.8574 250.426 58.8074V60.3274C250.056 60.4074 249.676 60.4474 249.296 60.4574C247.646 60.4574 246.666 59.6574 246.666 57.7374V53.1674Z" fill="white"/>
<path d="M252.326 53.1674H251.126V51.7574H252.326V49.5574H254.046V51.7574H256.046V53.1674H254.046V57.6374C254.046 58.4974 254.456 58.8874 255.256 58.8874C255.536 58.8874 255.816 58.8574 256.096 58.8074V60.3274C255.716 60.4074 255.336 60.4474 254.956 60.4574C253.306 60.4574 252.326 59.6574 252.326 57.7374V53.1674Z" fill="white"/>
<path d="M265.036 57.3974C264.896 59.1874 263.566 60.4874 261.306 60.4874C258.506 60.4874 257.306 58.7074 257.306 56.0474C257.306 53.3874 258.636 51.5974 261.306 51.5974C263.976 51.5974 265.066 53.2974 265.066 56.0374V56.3074H259.066C259.066 58.1674 259.936 59.1074 261.276 59.1074C262.316 59.2374 263.256 58.4974 263.376 57.4574C263.376 57.4374 263.376 57.4174 263.376 57.3974H265.036ZM263.356 55.1874C263.486 54.0874 262.706 53.0974 261.616 52.9574C261.516 52.9474 261.406 52.9374 261.296 52.9474C260.006 52.9474 259.226 53.6774 259.046 55.1874H263.356Z" fill="white"/>
<path d="M267.466 51.7574H269.176V53.0874C269.636 52.1774 270.576 51.6174 271.596 51.6374C271.766 51.6274 271.926 51.6274 272.096 51.6374V53.4174C271.856 53.3374 271.606 53.3074 271.356 53.3074C270.206 53.2474 269.226 54.1374 269.166 55.2874C269.166 55.4074 269.166 55.5174 269.176 55.6374V60.3274H267.466V51.7574Z" fill="white"/>
<path d="M273.126 58.1274C273.726 58.0974 274.236 58.5674 274.266 59.1674C274.266 59.1974 274.266 59.2374 274.266 59.2674C274.286 59.8774 273.816 60.3874 273.206 60.4074C273.176 60.4074 273.156 60.4074 273.126 60.4074C272.496 60.4074 271.986 59.8974 271.986 59.2674C271.986 58.6374 272.496 58.1274 273.126 58.1274Z" fill="white"/>
<path d="M56.9756 1.62769H63.4391C64.2893 1.62769 64.9756 2.31399 64.9756 3.16418V9.62769H56.9756V1.62769Z" fill="white"/>
<path d="M55.9756 17.6277V18.6277H56.9756H63.9756V63.1157C63.9756 63.4 63.7479 63.6277 63.4636 63.6277H3.48759C3.20323 63.6277 2.97559 63.4 2.97559 63.1157V3.13969C2.97559 2.85533 3.20323 2.62769 3.48759 2.62769H47.9756V9.62769V10.6277H48.9756H55.9756V17.6277Z" stroke="white" stroke-width="2" stroke-miterlimit="10"/>
<path d="M54.8454 28.6074V30.3574H53.0954V42.6074H54.8454V39.1074H56.5954V28.6074H54.8454Z" fill="#F2F2F2"/>
<path d="M47.8454 26.8574V30.3574H49.5954V28.6074H53.0954H54.8454V26.8574H47.8454Z" fill="#F2F2F2"/>
<path d="M53.0954 42.6074H51.3454V44.3574H53.0954V42.6074Z" fill="#F2F2F2"/>
<path d="M49.5954 44.3574H47.8454V46.1074H49.5954V44.3574Z" fill="#F2F2F2"/>
<path d="M35.5954 14.5974V18.1074H37.3454V14.5974H35.5954Z" fill="#E0E0E0"/>
<path d="M35.5854 18.1074H33.8354V19.8574H35.5854V18.1074Z" fill="#E0E0E0"/>
<path d="M35.5954 11.0974H33.8354V14.5974H35.5954V11.0974Z" fill="#E0E0E0"/>
<path d="M28.5854 18.1074H30.3354V14.5974H28.5854V18.1074Z" fill="#E0E0E0"/>
<path d="M28.5854 18.1074H26.8355V19.8574H28.5854V18.1074Z" fill="#E0E0E0"/>
<path d="M28.5854 11.0974H26.8355V14.5974H28.5854V11.0974Z" fill="#E0E0E0"/>
<path d="M21.5855 18.1074H23.3355V14.5974H21.5855V18.1074Z" fill="#E0E0E0"/>
<path d="M21.5855 18.1074H19.8355V19.8574H21.5855V18.1074Z" fill="#E0E0E0"/>
<path d="M21.5855 11.0974H19.8355V14.5974H21.5855V11.0974Z" fill="#E0E0E0"/>
<path d="M49.5954 28.6074V30.3574H47.8454V26.8574V23.3574H44.3454V26.8574H46.0954V49.6074H42.5954V51.3574H40.8454V53.1174H35.5954V54.8674H18.0855V56.6174H40.8454V54.8674H44.3454V51.3574H47.8454V47.8574H49.5954V46.1074H47.8454V44.3574V32.1074H51.3454V30.3574H53.0954V28.6074H49.5954Z" fill="#C7C7C7"/>
<path d="M16.3354 21.6074V23.3574H21.5855V21.6074H16.3354Z" fill="white"/>
<path d="M16.3354 25.1074V39.1074H18.0855V37.3574H19.8355V28.6074H21.5855V25.1074H16.3354Z" fill="white"/>
<path d="M54.8454 39.1074V42.6074H56.5954V39.1074H54.8454Z" fill="#E0E0E0"/>
<path d="M54.8454 42.6074H53.0954V44.3574H54.8454V42.6074Z" fill="#E0E0E0"/>
<path d="M54.8454 28.6074H53.0954V30.3574H54.8454V28.6074Z" fill="#E0E0E0"/>
<path d="M49.5954 44.3574V46.1074H53.0954V44.3574H51.3454H49.5954Z" fill="#E0E0E0"/>
<path d="M44.3454 23.3574H21.5855H16.3354H11.0854V25.1074H16.3354H21.5855H40.8454V46.1074H39.0954V47.8574H37.3454V49.6074H32.0854V51.3574H28.5854V53.1174H14.5854V54.8674H18.0855H35.5954V53.1174H40.8454V51.3574H42.5954V49.6074H46.0954V26.8574H44.3454V23.3574Z" fill="#E0E0E0"/>
<path d="M21.5855 21.6074V23.3574H44.3454H47.8454V21.6074H21.5855Z" fill="#F2F2F2"/>
<path d="M21.5855 25.1074V28.6074H19.8355V37.3574H18.0855V39.1074H16.3354V25.1074H11.0854V51.3574H12.8354V53.1174H14.5854H28.5854V51.3574H32.0854V49.6074H37.3454V47.8574H39.0954V46.1074H40.8454V25.1074H21.5855Z" fill="#F2F2F2"/>
<path d="M16.3354 23.3574V21.6074H11.0854V23.3574H16.3354Z" fill="#F2F2F2"/>
<path d="M94.5055 40.6874C94.3555 40.4374 94.2055 40.1674 94.0755 39.8974C93.9355 39.6374 93.8155 39.3674 93.7155 39.0874C91.7755 33.9874 89.8655 28.9374 87.9755 23.9274C86.0855 18.9174 84.1455 13.8674 82.1455 8.75741C82.1555 8.68741 82.1555 8.62741 82.1455 8.55741C82.1455 8.49741 82.1455 8.43741 82.1455 8.37741C82.1455 7.95741 82.4155 7.74741 82.9755 7.74741H90.2155C90.7455 7.75741 91.1955 8.12741 91.3255 8.63741L98.2155 29.1274L104.586 8.63741C104.746 8.09741 105.256 7.74741 105.816 7.77741H113.136C113.396 7.75741 113.646 7.82741 113.866 7.96741C114.006 8.09741 114.086 8.28741 114.076 8.47741C114.076 8.55741 114.076 8.64741 114.076 8.72741V8.78741L110.076 20.2674L113.076 29.1074L120.356 8.63741C120.516 8.09741 121.036 7.73741 121.596 7.77741H128.676C128.936 7.75741 129.196 7.81741 129.406 7.96741C129.556 8.09741 129.636 8.28741 129.626 8.47741C129.626 8.55741 129.626 8.64741 129.626 8.72741V8.78741C128.626 11.4274 127.556 14.0674 126.496 16.6874L123.286 24.5674C122.216 27.1874 121.146 29.8174 120.096 32.4474C119.046 35.0774 117.976 37.6374 116.976 40.3074C116.886 40.5174 116.746 40.7074 116.576 40.8574C116.366 41.0574 116.096 41.1674 115.806 41.1574H110.296C110.036 41.1774 109.766 41.1074 109.546 40.9674C109.366 40.8474 109.236 40.6674 109.176 40.4674L105.616 31.1074C105.106 32.4674 104.616 33.8074 104.106 35.1074C103.596 36.4074 103.106 37.7574 102.626 39.1074C102.546 39.3174 102.466 39.5374 102.366 39.7674C102.276 39.9974 102.156 40.2174 102.016 40.4174C101.896 40.6174 101.736 40.7874 101.556 40.9274C101.386 41.0674 101.176 41.1374 100.956 41.1274H95.4455C95.0755 41.1874 94.6955 41.0174 94.5055 40.6874Z" fill="white"/>
<path d="M128.836 26.8974C128.836 24.2574 129.516 21.6574 130.836 19.3674C131.476 18.2774 132.246 17.2674 133.136 16.3674C134.036 15.4774 135.036 14.7174 136.136 14.0874C138.426 12.7774 141.016 12.0874 143.656 12.0874C145.626 12.0774 147.576 12.4574 149.396 13.2274C151.146 13.9474 152.736 15.0074 154.076 16.3474C155.416 17.6874 156.486 19.2774 157.226 21.0274C158.516 24.1274 158.736 27.5774 157.856 30.8174C156.856 34.5374 154.426 37.7074 151.096 39.6374C148.836 40.9474 146.266 41.6374 143.656 41.6374C142.306 41.6374 140.956 41.4674 139.656 41.1174C138.416 40.7874 137.226 40.2974 136.116 39.6474C133.926 38.3774 132.106 36.5574 130.836 34.3674C130.196 33.2574 129.696 32.0674 129.356 30.8274C129.006 29.5474 128.836 28.2274 128.836 26.8974ZM137.046 26.8974C137.046 27.8474 137.196 28.7874 137.506 29.6774C137.796 30.4974 138.236 31.2574 138.816 31.9174C139.366 32.5474 140.056 33.0574 140.816 33.4074C141.666 33.7874 142.596 33.9774 143.526 33.9574C144.436 33.9674 145.336 33.7874 146.166 33.4074C146.936 33.0674 147.616 32.5574 148.166 31.9174C148.756 31.2574 149.196 30.4774 149.476 29.6374C150.066 27.8374 150.066 25.9074 149.476 24.1074C149.206 23.2674 148.776 22.4974 148.216 21.8174C147.676 21.1574 146.986 20.6274 146.216 20.2574C145.396 19.8574 144.486 19.6674 143.576 19.6774C142.636 19.6574 141.716 19.8574 140.866 20.2574C140.096 20.6274 139.416 21.1574 138.866 21.8174C138.296 22.4974 137.846 23.2674 137.556 24.1074C137.226 24.9974 137.056 25.9474 137.046 26.8974Z" fill="white"/>
<path d="M162.856 14.2474C162.856 13.9974 162.916 13.7474 163.026 13.5174C163.126 13.3074 163.266 13.1174 163.446 12.9674C163.806 12.7274 164.226 12.5874 164.656 12.5874H168.056C168.286 12.5774 168.526 12.6274 168.726 12.7474C168.896 12.8474 169.036 12.9874 169.146 13.1474C169.266 13.3274 169.356 13.5074 169.436 13.7074C169.516 13.9274 169.616 14.1374 169.736 14.3374L169.926 14.7774C170.006 15.0174 170.106 15.2674 170.216 15.5474C170.326 15.8274 170.416 16.0874 170.516 16.3374C170.616 16.5874 170.676 16.7374 170.706 16.8174C171.156 16.3174 171.586 15.8174 172.006 15.2574C172.406 14.7174 172.846 14.2074 173.316 13.7374C173.776 13.2974 174.296 12.9274 174.866 12.6374C175.486 12.3274 176.176 12.1774 176.866 12.1874C177.596 12.1874 178.316 12.2374 179.036 12.3674C179.656 12.4774 180.266 12.6574 180.846 12.8974C181.436 13.1374 182.006 13.4374 182.546 13.7874C183.106 14.1474 183.715 14.5674 184.376 15.0474C185.376 15.5974 185.606 16.4274 184.966 17.5174L182.976 20.9574C182.736 21.3674 182.336 21.6674 181.876 21.7874C181.396 21.8874 180.886 21.8174 180.456 21.5874C179.876 21.0074 179.196 20.5274 178.456 20.1774C177.736 19.8674 176.956 19.7074 176.176 19.7174C175.656 19.7074 175.126 19.7874 174.636 19.9674C174.196 20.1274 173.786 20.3674 173.426 20.6674C173.056 20.9874 172.716 21.3574 172.426 21.7474C172.116 22.1674 171.796 22.6274 171.486 23.1374V39.4274C171.516 39.8974 171.366 40.3574 171.066 40.7174C170.686 41.0474 170.186 41.2074 169.686 41.1574H164.626C163.786 41.2874 162.996 40.7074 162.866 39.8674C162.846 39.7174 162.846 39.5674 162.866 39.4274V14.2474H162.856Z" fill="white"/>
<path d="M188.756 5.11741C188.756 4.92741 188.836 4.73741 188.946 4.57741C189.086 4.40741 189.266 4.28741 189.476 4.22741C189.806 4.13741 190.136 4.09741 190.476 4.10741H195.856C196.096 4.09741 196.346 4.14741 196.566 4.24741C196.746 4.33741 196.896 4.45741 197.016 4.61741C197.126 4.75741 197.196 4.92741 197.236 5.10741C197.276 5.26741 197.296 5.42741 197.296 5.58741V22.2374L205.396 13.2374C205.736 12.8274 206.246 12.5874 206.786 12.5874H213.696C214.526 12.5874 214.936 12.9074 214.936 13.5874C214.936 13.7274 214.916 13.8574 214.856 13.9874C214.766 14.1474 214.656 14.3074 214.526 14.4374L205.286 24.2074L216.976 39.1174H216.926C217.105 39.2774 217.245 39.4874 217.346 39.7074C217.416 39.8774 217.456 40.0674 217.466 40.2574C217.506 40.5274 217.396 40.7974 217.186 40.9674C216.936 41.1174 216.635 41.1774 216.346 41.1574H208.736C208.466 41.1574 208.215 41.0474 208.016 40.8674C207.736 40.6074 207.486 40.3074 207.276 39.9874L199.916 29.5774L197.426 32.1574V39.4274C197.426 39.5874 197.406 39.7474 197.366 39.8974C197.326 40.0974 197.256 40.2974 197.146 40.4774C197.026 40.6674 196.866 40.8374 196.676 40.9574C196.446 41.1074 196.186 41.1774 195.916 41.1574H190.266C190.016 41.1574 189.776 41.0874 189.566 40.9474C189.386 40.8174 189.226 40.6574 189.106 40.4674C189.006 40.3074 188.926 40.1374 188.866 39.9574C188.826 39.8674 188.796 39.7774 188.786 39.6774L188.756 5.11741Z" fill="white"/>
<path d="M275.126 37.6374C274.726 38.0374 274.276 38.4774 273.786 38.9374C273.286 39.4174 272.756 39.8574 272.186 40.2474C271.596 40.6474 270.966 40.9874 270.296 41.2474C269.596 41.5074 268.856 41.6474 268.106 41.6374C264.296 41.6774 260.646 40.1274 258.036 37.3574C256.786 35.9874 255.796 34.3974 255.136 32.6574C253.746 28.9074 253.746 24.7874 255.136 21.0374C255.796 19.3074 256.786 17.7174 258.036 16.3574C259.286 15.0174 260.796 13.9574 262.476 13.2374C264.256 12.4674 266.166 12.0774 268.106 12.0974C268.876 12.0974 269.636 12.2074 270.366 12.4574C271.026 12.6874 271.656 12.9974 272.236 13.3774C272.796 13.7474 273.306 14.1774 273.786 14.6474C274.266 15.1274 274.706 15.5874 275.126 16.0374V5.78741C275.116 5.34741 275.276 4.90741 275.566 4.57741C275.916 4.22741 276.396 4.03741 276.886 4.07741H281.976C282.186 4.07741 282.396 4.12741 282.596 4.20741C282.816 4.28741 283.016 4.40741 283.196 4.55741C283.376 4.70741 283.516 4.88741 283.626 5.09741C283.745 5.30741 283.806 5.54741 283.796 5.78741V39.4274C283.796 40.5874 283.196 41.1574 281.976 41.1574H277.566C277.326 41.1674 277.086 41.1374 276.866 41.0474C276.706 40.9774 276.556 40.8574 276.456 40.7174C276.326 40.5574 276.226 40.3774 276.146 40.1874C276.056 39.9674 275.946 39.7174 275.816 39.4274L275.126 37.6374ZM262.196 26.8974C262.196 27.8474 262.346 28.7874 262.656 29.6774C262.936 30.5074 263.386 31.2674 263.976 31.9174C264.556 32.5474 265.256 33.0574 266.036 33.4074C266.876 33.7874 267.786 33.9674 268.706 33.9574C269.636 33.9574 270.556 33.7874 271.416 33.4474C272.236 33.1174 272.996 32.6274 273.636 32.0174C274.266 31.3974 274.776 30.6674 275.146 29.8674C275.536 29.0274 275.756 28.1274 275.796 27.2074V26.8974C275.796 25.9574 275.616 25.0174 275.256 24.1474C274.906 23.2974 274.396 22.5174 273.756 21.8574C273.116 21.1974 272.346 20.6674 271.506 20.2974C270.626 19.9074 269.666 19.7074 268.706 19.7174C267.786 19.7074 266.866 19.8974 266.036 20.2974C265.246 20.6674 264.546 21.1974 263.976 21.8574C263.396 22.5274 262.956 23.3074 262.666 24.1474C262.356 25.0274 262.196 25.9574 262.196 26.8974Z" fill="white"/>
<path d="M340.805 37.7374C339.505 38.9674 338.006 39.9474 336.356 40.6374C334.686 41.3174 332.906 41.6574 331.106 41.6374C327.146 41.6574 323.326 40.1374 320.465 37.3974C319.076 36.0374 317.956 34.4274 317.186 32.6374C316.376 30.7974 315.966 28.8174 315.976 26.8074C315.966 24.2474 316.605 21.7374 317.835 19.4974C318.425 18.4074 319.156 17.3974 319.995 16.4974C320.835 15.5974 321.785 14.8174 322.835 14.1774C325.035 12.8274 327.576 12.1174 330.156 12.1274C331.376 12.1274 332.596 12.2874 333.775 12.6174C334.925 12.9374 336.036 13.4074 337.066 14.0174C339.116 15.2174 340.826 16.9074 342.065 18.9374C342.685 19.9274 343.165 21.0074 343.495 22.1274C343.835 23.2674 344.005 24.4374 344.005 25.6274V27.5374C344.005 27.9574 343.896 28.3674 343.665 28.7174C343.405 29.0474 343.026 29.2674 342.616 29.3274C341.906 29.4574 341.185 29.5174 340.465 29.4974H324.266C324.376 30.3574 324.686 31.1874 325.176 31.9074C325.606 32.5174 326.146 33.0374 326.766 33.4474C327.356 33.8174 327.996 34.0974 328.676 34.2674C329.296 34.4274 329.945 34.5074 330.585 34.5174C331.145 34.5174 331.706 34.4574 332.256 34.3474C332.816 34.2374 333.366 34.0874 333.906 33.8974C334.406 33.7174 334.896 33.4974 335.366 33.2474C335.756 33.0374 336.115 32.7774 336.436 32.4674C336.626 32.3074 336.835 32.1574 337.055 32.0274C337.225 31.9274 337.416 31.8774 337.606 31.8774C337.826 31.8774 338.036 31.9574 338.206 32.0874C338.456 32.2574 338.686 32.4574 338.896 32.6674L341.275 35.3674C341.415 35.5174 341.525 35.6974 341.595 35.8974C341.635 36.0574 341.655 36.2174 341.655 36.3774C341.655 36.6574 341.576 36.9274 341.415 37.1574C341.245 37.3774 341.035 37.5774 340.805 37.7374ZM329.976 18.9974C329.396 18.9974 328.815 19.1174 328.275 19.3474C327.715 19.5774 327.206 19.8974 326.736 20.2774C326.256 20.6774 325.816 21.1174 325.436 21.6074C325.076 22.0774 324.766 22.5874 324.506 23.1174H335.976C335.686 22.5574 335.346 22.0074 334.976 21.4974C334.616 21.0074 334.195 20.5674 333.715 20.1874C333.225 19.8074 332.686 19.5174 332.096 19.3174C331.416 19.0974 330.696 18.9874 329.976 18.9974Z" fill="white"/>
<path d="M382.975 8.12741C382.965 7.73741 383.135 7.36741 383.445 7.12741C383.845 6.83741 384.285 6.61741 384.755 6.45741L389.855 4.63741H390.255C390.695 4.57741 391.125 4.76741 391.375 5.12741C391.585 5.51741 391.675 5.95741 391.655 6.39741V13.4874H395.405C395.835 13.4674 396.255 13.6174 396.576 13.9074C396.896 14.2574 397.065 14.7274 397.025 15.1974V19.5374C397.065 20.0374 396.905 20.5374 396.576 20.9174C396.266 21.2174 395.835 21.3774 395.405 21.3574H391.655V39.4474C391.685 39.9274 391.505 40.4074 391.155 40.7374C390.765 41.0474 390.285 41.2074 389.785 41.1774H384.706C383.866 41.2974 383.095 40.7174 382.975 39.8774C382.956 39.7274 382.956 39.5774 382.975 39.4274V21.3374H381.335C380.175 21.3374 379.605 20.7274 379.605 19.5174V15.1774C379.496 14.3474 380.076 13.5774 380.905 13.4674C381.046 13.4474 381.195 13.4474 381.335 13.4674H382.975V8.12741Z" fill="white"/>
<path d="M427.095 40.7774C426.915 40.9374 426.706 41.0474 426.475 41.0974C426.275 41.1374 426.065 41.1574 425.855 41.1674H422.456C422.216 41.1674 421.975 41.1174 421.755 41.0174C421.565 40.9174 421.406 40.7874 421.266 40.6274C421.125 40.4574 421.016 40.2674 420.926 40.0674C420.836 39.8574 420.766 39.6374 420.706 39.4174L419.975 36.5374C419.685 37.0874 419.355 37.6174 418.975 38.1174C418.516 38.7474 417.965 39.3074 417.345 39.7874C416.625 40.3374 415.836 40.7674 414.986 41.0874C413.975 41.4474 412.905 41.6274 411.835 41.6074C408.675 41.6574 405.665 40.3074 403.605 37.9174C402.605 36.7374 401.826 35.3774 401.326 33.9174C400.776 32.3574 400.505 30.7074 400.516 29.0474V14.3174C400.486 13.8574 400.616 13.3974 400.885 13.0274C401.195 12.7074 401.625 12.5474 402.065 12.5874H407.266C407.736 12.5374 408.205 12.6574 408.595 12.9174C408.885 13.2774 409.016 13.7374 408.956 14.1874V28.8474C408.956 29.4874 409.105 30.1174 409.396 30.6874C409.686 31.2674 410.076 31.7874 410.546 32.2174C411.026 32.6574 411.585 33.0174 412.185 33.2674C412.775 33.5174 413.395 33.6474 414.035 33.6474C414.615 33.6374 415.185 33.5074 415.715 33.2674C416.295 33.0174 416.835 32.6774 417.315 32.2674C417.796 31.8374 418.206 31.3274 418.516 30.7574C418.826 30.1974 418.986 29.5674 418.986 28.9274V14.2574C418.986 13.9974 419.035 13.7274 419.135 13.4874C419.215 13.2474 419.366 13.0374 419.576 12.8974C419.746 12.7874 419.925 12.7074 420.125 12.6574C420.315 12.6074 420.515 12.5874 420.715 12.5874H425.805C426.315 12.5374 426.815 12.7074 427.195 13.0574C427.495 13.4074 427.645 13.8574 427.625 14.3174V39.4974C427.625 39.7774 427.565 40.0474 427.435 40.2874C427.315 40.5174 427.135 40.7174 426.905 40.8474L427.095 40.7774Z" fill="white"/>
<path d="M433.076 14.2474C433.076 13.9974 433.135 13.7474 433.245 13.5174C433.345 13.3074 433.486 13.1174 433.665 12.9674C434.025 12.7474 434.445 12.6274 434.875 12.6374H438.275C438.505 12.6274 438.745 12.6774 438.945 12.7974C439.116 12.8974 439.256 13.0374 439.366 13.1974C439.486 13.3774 439.576 13.5574 439.655 13.7574C439.745 13.9774 439.845 14.1874 439.965 14.3874C439.965 14.4474 440.056 14.5974 440.146 14.8274C440.236 15.0574 440.326 15.3174 440.435 15.5974C440.545 15.8774 440.635 16.1374 440.736 16.3874C440.836 16.6374 440.896 16.7874 440.926 16.8674C441.376 16.3674 441.805 15.8674 442.225 15.3074C442.625 14.7674 443.065 14.2574 443.535 13.7874C443.995 13.3274 444.516 12.9374 445.095 12.6374C445.715 12.3274 446.405 12.1774 447.095 12.1874C447.826 12.1874 448.546 12.2374 449.266 12.3674C449.885 12.4774 450.496 12.6574 451.076 12.8974C451.665 13.1374 452.235 13.4374 452.775 13.7874C453.335 14.1474 453.956 14.5674 454.616 15.0474C455.406 15.3674 455.796 16.2674 455.475 17.0674C455.405 17.2374 455.315 17.3874 455.195 17.5174L453.146 21.0074C452.906 21.4174 452.505 21.7174 452.046 21.8374C451.565 21.9374 451.065 21.8674 450.625 21.6374C450.046 21.0574 449.365 20.5774 448.625 20.2274C447.905 19.9074 447.125 19.7574 446.345 19.7674C445.826 19.7574 445.295 19.8374 444.805 20.0174C444.365 20.1774 443.965 20.4174 443.605 20.7174C443.236 21.0374 442.896 21.3974 442.605 21.7974C442.296 22.2174 441.975 22.6774 441.665 23.1874V39.4274C441.695 39.8974 441.545 40.3574 441.245 40.7174C440.865 41.0474 440.366 41.2074 439.866 41.1574H434.805C433.965 41.2874 433.176 40.7074 433.046 39.8674C433.026 39.7174 433.026 39.5674 433.046 39.4274L433.076 14.2474Z" fill="white"/>
<path d="M480.736 37.7374C479.436 38.9674 477.925 39.9474 476.275 40.6374C474.615 41.3174 472.835 41.6574 471.035 41.6374C467.076 41.6574 463.255 40.1374 460.396 37.3974C458.996 36.0374 457.875 34.4274 457.105 32.6374C456.285 30.7874 455.876 28.7874 455.896 26.7674C455.896 24.2174 456.525 21.6974 457.745 19.4574C458.335 18.3674 459.065 17.3574 459.905 16.4574C462.535 13.6574 466.215 12.0674 470.065 12.0874C471.285 12.0874 472.505 12.2474 473.685 12.5774C475.995 13.2274 478.095 14.4474 479.805 16.1374C480.645 16.9774 481.366 17.9274 481.975 18.9474C482.585 19.9474 483.065 21.0174 483.405 22.1374C483.765 23.2674 483.956 24.4474 483.975 25.6374V27.5474C483.975 27.9674 483.855 28.3774 483.625 28.7274C483.375 29.0474 483.025 29.2574 482.625 29.3374C481.915 29.4674 481.206 29.5274 480.486 29.5074H464.176C464.285 30.3674 464.595 31.1974 465.085 31.9174C465.505 32.5274 466.046 33.0474 466.665 33.4574C467.255 33.8274 467.905 34.1074 468.585 34.2774C469.205 34.4374 469.855 34.5174 470.495 34.5274C471.055 34.5274 471.605 34.4674 472.155 34.3574C472.715 34.2474 473.275 34.0974 473.815 33.9074C474.315 33.7274 474.805 33.5074 475.275 33.2574C475.665 33.0474 476.025 32.7874 476.345 32.4774C476.535 32.3074 476.745 32.1674 476.965 32.0374C477.135 31.9374 477.326 31.8874 477.516 31.8874C477.725 31.8874 477.935 31.9674 478.105 32.0974C478.355 32.2674 478.586 32.4574 478.796 32.6774L481.185 35.3774C481.326 35.5274 481.425 35.7074 481.495 35.9074C481.545 36.0674 481.565 36.2274 481.565 36.3874C481.565 36.6674 481.486 36.9474 481.315 37.1674C481.155 37.3874 480.956 37.5774 480.736 37.7374ZM469.905 18.9974C469.326 18.9974 468.746 19.1174 468.206 19.3474C467.656 19.5874 467.135 19.8974 466.665 20.2774C466.185 20.6774 465.755 21.1374 465.375 21.6374C465.016 22.1074 464.706 22.6174 464.445 23.1474H475.975C475.685 22.5774 475.355 22.0374 474.975 21.5274C474.616 21.0374 474.185 20.5974 473.715 20.2174C473.225 19.8374 472.685 19.5474 472.095 19.3474C471.395 19.1074 470.645 18.9874 469.905 18.9974Z" fill="white"/>
<path d="M240.546 35.6474H235.056V41.1374H240.546V35.6474Z" fill="white"/>
<path d="M304.866 12.5874H299.376V18.0774H304.866V12.5874Z" fill="white"/>
<path d="M348.885 12.6274H343.396V18.1174H348.885V12.6274Z" fill="white"/>
<path d="M356.096 18.0574H348.726V39.4274C348.636 40.2974 349.256 41.0774 350.126 41.1674C350.266 41.1874 350.406 41.1774 350.546 41.1574H355.636C355.836 41.1574 356.036 41.1374 356.226 41.0974C356.426 41.0374 356.616 40.9574 356.786 40.8474C356.986 40.6974 357.136 40.4974 357.216 40.2574C357.316 40.0174 357.366 39.7574 357.366 39.4974V24.8674C357.406 24.2074 357.596 23.5674 357.916 22.9874C358.226 22.4274 358.636 21.9174 359.106 21.4874C359.566 21.0674 360.096 20.7374 360.666 20.4874C361.186 20.2574 361.746 20.1374 362.316 20.1274C362.956 20.1274 363.586 20.2574 364.176 20.5074C364.776 20.7474 365.326 21.0874 365.806 21.5074C366.336 21.9974 366.756 22.5874 367.056 23.2474C367.286 23.7574 367.406 24.3174 367.406 24.8774V39.5674C367.346 40.0174 367.476 40.4774 367.766 40.8374C368.156 41.0974 368.626 41.2074 369.086 41.1574H374.286C374.726 41.1974 375.166 41.0374 375.466 40.7174C375.736 40.3474 375.866 39.8874 375.836 39.4274V24.6874C375.846 23.0374 375.576 21.3874 375.026 19.8274C374.526 18.3674 373.746 17.0074 372.746 15.8274C371.756 14.6874 370.546 13.7674 369.176 13.1374C367.716 12.4574 366.135 12.1174 364.526 12.1374C363.446 12.1174 362.376 12.2974 361.366 12.6674C360.516 12.9774 359.726 13.4174 359.006 13.9674C358.386 14.4474 357.836 15.0074 357.376 15.6374C357.026 16.1074 356.716 16.6074 356.446 17.1274C356.416 17.1874 356.386 17.2474 356.366 17.3174L356.096 18.0574Z" fill="white"/>
<path d="M304.816 18.0374L301.366 29.0374C301.266 28.7674 301.106 28.3174 300.886 27.6774C300.666 27.0374 300.416 26.2874 300.146 25.4274C299.876 24.5674 299.566 23.6174 299.236 22.5974C298.906 21.5774 298.566 20.5274 298.236 19.4874C297.906 18.4474 297.576 17.4274 297.236 16.4374C296.896 15.4474 296.646 14.5574 296.386 13.7574C296.286 13.3974 296.066 13.0774 295.766 12.8574C295.476 12.6474 295.126 12.5374 294.766 12.5474H288.976C288.276 12.5474 287.826 12.7674 287.636 13.1974C287.456 13.7274 287.516 14.2974 287.806 14.7774L298.176 40.1574C298.286 40.4374 298.476 40.6874 298.726 40.8674C299.126 41.0674 299.566 41.1574 300.006 41.1174H302.676C303.036 41.1374 303.386 41.0374 303.676 40.8374C303.906 40.6474 304.106 40.4174 304.256 40.1574L313.496 17.9974L304.816 18.0374Z" fill="white"/>
<path d="M251.436 40.1474L239.626 9.68741L239.066 8.39741C238.946 8.24741 238.805 8.10741 238.656 7.98741C238.476 7.83741 238.246 7.74741 238.006 7.74741H232.246C232.116 7.74741 231.986 7.77741 231.866 7.82741C231.726 7.87741 231.596 7.94741 231.476 8.03741C231.366 8.11741 231.256 8.22741 231.176 8.33741C231.105 8.41741 231.056 8.51741 231.026 8.62741L218.816 40.2574C218.696 40.5574 218.726 40.7874 218.916 40.9374C219.116 41.0874 219.366 41.1674 219.626 41.1574H226.256C226.786 41.1874 227.266 40.8474 227.406 40.3274L228.276 38.0474C228.566 37.2874 228.856 36.5274 229.136 35.7574H235.136V28.5374H231.666C231.956 27.7774 232.246 26.9474 232.536 26.0774C232.826 25.2074 233.116 24.3074 233.406 23.4074C233.695 22.5074 233.976 21.6174 234.266 20.7274C234.555 19.8374 234.846 19.0174 235.136 18.2574L242.826 40.3274C242.906 40.5774 243.055 40.8074 243.266 40.9674C243.506 41.1074 243.786 41.1774 244.066 41.1574H250.526C250.836 41.1974 251.146 41.0874 251.376 40.8774C251.546 40.6674 251.566 40.3774 251.436 40.1474Z" fill="white"/>
</g>
<defs>
<clipPath id="clip0_2203_11299">
<rect width="483" height="64.5" fill="white" transform="translate(0.975586 0.637451)"/>
</clipPath>
</defs>
</svg>
