<svg width="35" height="35" viewBox="0 0 35 35" fill="none" xmlns="http://www.w3.org/2000/svg">
	<style>
		path.fill {
			fill: #1B2A41;
		}
		path.border {
			stroke: #1B2A41;
		}
		@media ( prefers-color-scheme: dark ) {
			path.fill {
				fill: #FFFFFF;
			}
			path.border {
				stroke: #FFFFFF;
			}
		}
	</style>
	<path class="fill" d="M31 0H34.2318C34.4355 0 34.631 0.0809405 34.775 0.225014C34.9191 0.369088 35 0.564495 35 0.768251V4H31V0Z" fill="#1B2A41"/>
	<path class="border" d="M29.604 8.7416V9.7416H30.604H34V34H1V1H25.2024V4.3736V5.3736H26.2024H29.604V8.7416Z" stroke="#1B2A41" stroke-width="2" stroke-miterlimit="10"/>
	<path class="fill" d="M18.7441 6.95472V8.91504H19.7297V6.95472H18.7441Z" fill="#1B2A41"/>
	<path class="fill" d="M18.7394 8.91494H17.7539V9.89224H18.7394V8.91494Z" fill="#1B2A41"/>
	<path class="fill" d="M18.7451 5H17.7539V6.9547H18.7451V5Z" fill="#1B2A41"/>
	<path class="fill" d="M14.7968 8.91504H15.7824V6.95472H14.7968V8.91504Z" fill="#1B2A41"/>
	<path class="fill" d="M14.7968 8.91504L13.8105 8.91494V9.89224H14.7961L14.7968 8.91504Z" fill="#1B2A41"/>
	<path class="fill" d="M14.7961 5H13.8105V6.9547L14.7968 6.95472L14.7961 5Z" fill="#1B2A41"/>
	<path class="fill" d="M10.8554 8.91504H11.841V6.95472H10.8554V8.91504Z" fill="#1B2A41"/>
	<path class="fill" d="M10.8554 8.91504L9.86914 8.91494V9.89224H10.8547L10.8554 8.91504Z" fill="#1B2A41"/>
	<path class="fill" d="M10.8547 5H9.86914V6.9547L10.8554 6.95472L10.8547 5Z" fill="#1B2A41"/>
	<path class="fill" d="M17.7441 6.95472V8.91504H18.7297V6.95472H17.7441Z" fill="#1B2A41"/>
	<path class="fill" d="M17.7394 8.91494H16.7539V9.89224H17.7394V8.91494Z" fill="#1B2A41"/>
	<path class="fill" d="M17.7451 5H16.7539V6.9547H17.7451V5Z" fill="#1B2A41"/>
	<path class="fill" d="M13.7968 8.91504H14.7824V6.95472H13.7968V8.91504Z" fill="#1B2A41"/>
	<path class="fill" d="M13.7968 8.91504L12.8105 8.91494V9.89224H13.7961L13.7968 8.91504Z" fill="#1B2A41"/>
	<path class="fill" d="M13.7961 5H12.8105V6.9547L13.7968 6.95472L13.7961 5Z" fill="#1B2A41"/>
	<path class="fill" d="M9.85544 8.91504H10.841V6.95472H9.85544V8.91504Z" fill="#1B2A41"/>
	<path class="fill" d="M9.85544 8.91504L8.86914 8.91494V9.89224H9.85474L9.85544 8.91504Z" fill="#1B2A41"/>
	<path class="fill" d="M9.85474 5H8.86914V6.9547L9.85544 6.95472L9.85474 5Z" fill="#1B2A41"/>
	<path class="fill" d="M29.6437 14.8891V15.8665H28.6582V22.7079H29.6437V20.7532H30.6293V14.8891H29.6437Z" fill="#1B2A41"/>
	<path class="fill" d="M28.6594 22.708H27.6738V23.6853H28.6594V22.708Z" fill="#1B2A41"/>
	<path class="fill" d="M26.6872 14.8892V15.8665H25.7017V11.9571H23.7305V13.9118H24.7161V26.6174H22.745V27.5947H21.7594V28.5776H18.8027V29.555H8.94141V30.5324H21.7594V29.555H23.7305V27.5947H25.7017V25.64H26.6872V24.6627H25.7017V16.8439H27.6728V15.8665H28.6582L28.6584 14.8892H26.6872Z" fill="#1B2A41"/>
	<path class="fill" d="M7.95703 10.9797V11.957H10.9137V10.9797H7.95703Z" fill="#1B2A41"/>
	<path class="fill" d="M7.95703 12.9344V20.7532H8.9426V19.7759H9.92814V14.8891H10.9137V12.9344H7.95703Z" fill="#1B2A41"/>
	<path class="fill" d="M29.6437 22.7079H28.6582V23.6853H29.6437V22.7079Z" fill="#1B2A41"/>
	<path class="fill" d="M29.6437 14.8891L28.6584 14.8892L28.6582 15.8665H29.6437V14.8891Z" fill="#1B2A41"/>
	<path class="fill" d="M26.6875 23.6853L26.6872 24.6627L28.6586 24.6626L28.6582 23.6853H27.6738H26.6875Z" fill="#1B2A41"/>
	<path class="fill" d="M23.7305 11.9571H22.7458L10.9137 11.957H7.95703L5 11.9571V12.9345L7.95703 12.9344H10.9137L21.7603 12.9345V24.6627H20.7747V25.64H19.7891V26.6174H16.8268V27.5947H14.8556V28.5776H6.97114V29.555H8.94141H18.8027V28.5776H21.7594V27.5947H22.745V26.6174H24.7161V13.9118H23.7305V11.9571Z" fill="#1B2A41"/>
	<path class="fill" d="M10.9137 10.9797V11.957L22.7458 11.9571L25.7032 11.957V10.9797H10.9137Z" fill="#1B2A41"/>
	<path class="fill" d="M10.9137 12.9344V14.8891H9.92814V19.7759H8.9426V20.7532H7.95703V12.9344L5 12.9345V27.5947H5.98557V28.5776H6.97114H14.8556V27.5947H16.8268V26.6174H19.7891V25.64H20.7747V24.6627H21.7603V12.9345L10.9137 12.9344Z" fill="#1B2A41"/>
	<path class="fill" d="M7.95703 11.957V10.9797H5V11.9571L7.95703 11.957Z" fill="#1B2A41"/>
</svg>
